{"asset":{"version":"2.0","generator":"THREE.GLTFExporter"},"scenes":[{"name":"AuxScene","nodes":[51]}],"scene":0,"nodes":[{"matrix":[1.28,0,0,0,0,0.82,0,0,0,0,1.05,0,0,0,0,1],"name":"TorsoMain","mesh":0},{"matrix":[1.1,0,0,0,0,0.7,0,0,0,0,0.7,0,0.42,0.32,0.42,1],"name":"TorsoLight","mesh":1},{"matrix":[1,0,0,0,0,0.7,0,0,0,0,0.75,0,-0.3,-0.28,-0.32,1],"name":"TorsoDark","mesh":2},{"name":"HeadMain","mesh":3},{"matrix":[1,0,0,0,0,1,0,0,0,0,1,0,0.18,0.14,0.2,1],"name":"HeadLight","mesh":4},{"matrix":[1,0,0,0,0,1,0,0,0,0,1,0,-0.15,-0.1,-0.16,1],"name":"HeadDark","mesh":5},{"matrix":[0.9393727128473789,0.34289780745545134,0,0,-0.34289780745545134,0.9393727128473789,0,0,0,0,1,0,-0.16,0.34,0.06,1],"name":"EarLeft","mesh":6},{"matrix":[0.9800665778412416,-0.19866933079506122,0,0,0.19866933079506122,0.9800665778412416,0,0,0,0,1,0,0.02,0.36,0.08,1],"name":"EarRight","mesh":7},{"matrix":[1,0,0,0,0,1,0,0,0,0,1,0,0,0.25,0,1],"name":"Horn","mesh":8},{"matrix":[1,0,0,0,0,1,0,0,0,0,1,0,0,0.42,0,1],"name":"HornTip","mesh":9},{"matrix":[1,0,0,0,0,1,0,0,0,0,1,0,0,0.52,0,1],"name":"HornGlow","mesh":10},{"matrix":[1,0,0,0,0,0.9689124217106447,-0.24740395925452294,0,0,0.24740395925452294,0.9689124217106447,0,0.02,0.42,0.14,1],"name":"HornGroup","children":[8,9,10]},{"name":"EyeLeftWhite","mesh":11},{"matrix":[1,0,0,0,0,1,0,0,0,0,1,0,0,0,0.05,1],"name":"EyeLeftPupil","mesh":12},{"matrix":[1,0,0,0,0,1,0,0,0,0,1,0,-0.16,0.03,0.32,1],"name":"EyeLeft","children":[12,13]},{"name":"EyeRightWhite","mesh":13},{"matrix":[1,0,0,0,0,1,0,0,0,0,1,0,0,0,0.05,1],"name":"EyeRightPupil","mesh":14},{"matrix":[1,0,0,0,0,1,0,0,0,0,1,0,0.14,0.06,0.33,1],"name":"EyeRight","children":[15,16]},{"matrix":[0.9689124217106448,0.23635402982999035,-0.07311286916773024,0,-0.24740395925452288,0.925637391227236,-0.2863331991006687,0,0,0.2955202066613395,0.955336489125606,0,-0.05,0.32,-0.12,1],"name":"ManeSpike1","mesh":15},{"matrix":[0.9689124217106448,0.23635402982999035,-0.07311286916773024,0,-0.24740395925452288,0.925637391227236,-0.2863331991006687,0,0,0.2955202066613395,0.955336489125606,0,-0.16,0.28,-0.28,1],"name":"ManeSpike2","mesh":16},{"matrix":[0.9689124217106448,0.23635402982999035,-0.07311286916773024,0,-0.24740395925452288,0.925637391227236,-0.2863331991006687,0,0,0.2955202066613395,0.955336489125606,0,-0.28,0.22,-0.42,1],"name":"ManeSpike3","mesh":17},{"matrix":[0.9689124217106448,0.23635402982999035,-0.07311286916773024,0,-0.24740395925452288,0.925637391227236,-0.2863331991006687,0,0,0.2955202066613395,0.955336489125606,0,-0.4,0.14,-0.55,1],"name":"ManeSpike4","mesh":18},{"matrix":[1,0,0,0,0,1,0,0,0,0,1,0,0,0.58,0.92,1],"name":"HeadGroup","children":[3,4,5,6,7,11,14,17,18,19,20,21]},{"matrix":[1,0,0,0,0,0.24868988716485507,0.968583161128631,0,0,-0.968583161128631,0.24868988716485507,0,0,0,0,1],"name":"TailSeg1","mesh":19},{"matrix":[1,0,0,0,0,0.24868988716485507,0.968583161128631,0,0,-0.968583161128631,0.24868988716485507,0,-0.14,-0.06,-0.16,1],"name":"TailSeg2","mesh":20},{"matrix":[1,0,0,0,0,0.24868988716485507,0.968583161128631,0,0,-0.968583161128631,0.24868988716485507,0,0.1,-0.1,-0.22,1],"name":"TailSeg3","mesh":21},{"matrix":[1,0,0,0,0,1,0,0,0,0,1,0,-0.05,0.15,-0.95,1],"name":"Tail","children":[23,24,25]},{"matrix":[1,0,0,0,0,1,0,0,0,0,1,0,0,-0.3976,0,1],"name":"Leg1Upper","mesh":22},{"name":"Leg1KneeCap","mesh":23},{"matrix":[1,0,0,0,0,1,0,0,0,0,1,0,0,-0.3124,0,1],"name":"Leg1Lower","mesh":24},{"matrix":[1,0,0,0,0,-1,1.2246467991473532e-16,0,0,-1.2246467991473532e-16,-1,0,0,-0.15,0,1],"name":"Leg1FlameOuter","mesh":25},{"matrix":[1,0,0,0,0,-1,1.2246467991473532e-16,0,0,-1.2246467991473532e-16,-1,0,0,-0.08,0,1],"name":"Leg1FlameInner","mesh":26},{"matrix":[1,0,0,0,0,1,0,0,0,0,1,0,0,-0.6248,0,1],"name":"Leg1FlameGroup","children":[30,31]},{"matrix":[1,0,0,0,0,1,0,0,0,0,1,0,0,-0.7952,0,1],"name":"Leg1Knee","children":[28,29,32]},{"matrix":[1,0,0,0,0,1,0,0,0,0,1,0,-0.5,-0.18,0.3,1],"name":"Leg1Hip","children":[27,33]},{"matrix":[1,0,0,0,0,1,0,0,0,0,1,0,0,-0.546,0,1],"name":"Leg2Upper","mesh":27},{"name":"Leg2KneeCap","mesh":28},{"matrix":[1,0,0,0,0,1,0,0,0,0,1,0,0,-0.429,0,1],"name":"Leg2Lower","mesh":29},{"matrix":[1,0,0,0,0,-1,1.2246467991473532e-16,0,0,-1.2246467991473532e-16,-1,0,0,-0.15,0,1],"name":"Leg2FlameOuter","mesh":30},{"matrix":[1,0,0,0,0,-1,1.2246467991473532e-16,0,0,-1.2246467991473532e-16,-1,0,0,-0.08,0,1],"name":"Leg2FlameInner","mesh":31},{"matrix":[1,0,0,0,0,1,0,0,0,0,1,0,0,-0.858,0,1],"name":"Leg2FlameGroup","children":[38,39]},{"matrix":[1,0,0,0,0,1,0,0,0,0,1,0,0,-1.092,0,1],"name":"Leg2Knee","children":[36,37,40]},{"matrix":[1,0,0,0,0,1,0,0,0,0,1,0,0.12,-0.18,-0.42,1],"name":"Leg2Hip","children":[35,41]},{"matrix":[1,0,0,0,0,1,0,0,0,0,1,0,0,-0.3416,0,1],"name":"Leg3Upper","mesh":32},{"name":"Leg3KneeCap","mesh":33},{"matrix":[1,0,0,0,0,1,0,0,0,0,1,0,0,-0.26839999999999997,0,1],"name":"Leg3Lower","mesh":34},{"matrix":[1,0,0,0,0,-1,1.2246467991473532e-16,0,0,-1.2246467991473532e-16,-1,0,0,-0.15,0,1],"name":"Leg3FlameOuter","mesh":35},{"matrix":[1,0,0,0,0,-1,1.2246467991473532e-16,0,0,-1.2246467991473532e-16,-1,0,0,-0.08,0,1],"name":"Leg3FlameInner","mesh":36},{"matrix":[1,0,0,0,0,1,0,0,0,0,1,0,0,-0.5367999999999999,0,1],"name":"Leg3FlameGroup","children":[46,47]},{"matrix":[1,0,0,0,0,1,0,0,0,0,1,0,0,-0.6832,0,1],"name":"Leg3Knee","children":[44,45,48]},{"matrix":[1,0,0,0,0,1,0,0,0,0,1,0,0.58,-0.18,0.26,1],"name":"Leg3Hip","children":[43,49]},{"name":"PonyRig","children":[0,1,2,22,26,34,42,50]}],"bufferViews":[{"buffer":0,"byteOffset":0,"byteLength":720,"target":34962,"byteStride":12},{"buffer":0,"byteOffset":720,"byteLength":720,"target":34962,"byteStride":12},{"buffer":0,"byteOffset":1440,"byteLength":480,"target":34962,"byteStride":8},{"buffer":0,"byteOffset":1920,"byteLength":720,"target":34962,"byteStride":12},{"buffer":0,"byteOffset":2640,"byteLength":720,"target":34962,"byteStride":12},{"buffer":0,"byteOffset":3360,"byteLength":480,"target":34962,"byteStride":8},{"buffer":0,"byteOffset":3840,"byteLength":720,"target":34962,"byteStride":12},{"buffer":0,"byteOffset":4560,"byteLength":720,"target":34962,"byteStride":12},{"buffer":0,"byteOffset":5280,"byteLength":480,"target":34962,"byteStride":8},{"buffer":0,"byteOffset":5760,"byteLength":720,"target":34962,"byteStride":12},{"buffer":0,"byteOffset":6480,"byteLength":720,"target":34962,"byteStride":12},{"buffer":0,"byteOffset":7200,"byteLength":480,"target":34962,"byteStride":8},{"buffer":0,"byteOffset":7680,"byteLength":720,"target":34962,"byteStride":12},{"buffer":0,"byteOffset":8400,"byteLength":720,"target":34962,"byteStride":12},{"buffer":0,"byteOffset":9120,"byteLength":480,"target":34962,"byteStride":8},{"buffer":0,"byteOffset":9600,"byteLength":720,"target":34962,"byteStride":12},{"buffer":0,"byteOffset":10320,"byteLength":720,"target":34962,"byteStride":12},{"buffer":0,"byteOffset":11040,"byteLength":480,"target":34962,"byteStride":8},{"buffer":0,"byteOffset":11520,"byteLength":432,"target":34962,"byteStride":12},{"buffer":0,"byteOffset":11952,"byteLength":432,"target":34962,"byteStride":12},{"buffer":0,"byteOffset":12384,"byteLength":288,"target":34962,"byteStride":8},{"buffer":0,"byteOffset":12672,"byteLength":432,"target":34962,"byteStride":12},{"buffer":0,"byteOffset":13104,"byteLength":432,"target":34962,"byteStride":12},{"buffer":0,"byteOffset":13536,"byteLength":288,"target":34962,"byteStride":8},{"buffer":0,"byteOffset":13824,"byteLength":540,"target":34962,"byteStride":12},{"buffer":0,"byteOffset":14364,"byteLength":540,"target":34962,"byteStride":12},{"buffer":0,"byteOffset":14904,"byteLength":360,"target":34962,"byteStride":8},{"buffer":0,"byteOffset":15264,"byteLength":540,"target":34962,"byteStride":12},{"buffer":0,"byteOffset":15804,"byteLength":540,"target":34962,"byteStride":12},{"buffer":0,"byteOffset":16344,"byteLength":360,"target":34962,"byteStride":8},{"buffer":0,"byteOffset":16704,"byteLength":720,"target":34962,"byteStride":12},{"buffer":0,"byteOffset":17424,"byteLength":720,"target":34962,"byteStride":12},{"buffer":0,"byteOffset":18144,"byteLength":480,"target":34962,"byteStride":8},{"buffer":0,"byteOffset":18624,"byteLength":720,"target":34962,"byteStride":12},{"buffer":0,"byteOffset":19344,"byteLength":720,"target":34962,"byteStride":12},{"buffer":0,"byteOffset":20064,"byteLength":480,"target":34962,"byteStride":8},{"buffer":0,"byteOffset":20544,"byteLength":720,"target":34962,"byteStride":12},{"buffer":0,"byteOffset":21264,"byteLength":720,"target":34962,"byteStride":12},{"buffer":0,"byteOffset":21984,"byteLength":480,"target":34962,"byteStride":8},{"buffer":0,"byteOffset":22464,"byteLength":720,"target":34962,"byteStride":12},{"buffer":0,"byteOffset":23184,"byteLength":720,"target":34962,"byteStride":12},{"buffer":0,"byteOffset":23904,"byteLength":480,"target":34962,"byteStride":8},{"buffer":0,"byteOffset":24384,"byteLength":720,"target":34962,"byteStride":12},{"buffer":0,"byteOffset":25104,"byteLength":720,"target":34962,"byteStride":12},{"buffer":0,"byteOffset":25824,"byteLength":480,"target":34962,"byteStride":8},{"buffer":0,"byteOffset":26304,"byteLength":432,"target":34962,"byteStride":12},{"buffer":0,"byteOffset":26736,"byteLength":432,"target":34962,"byteStride":12},{"buffer":0,"byteOffset":27168,"byteLength":288,"target":34962,"byteStride":8},{"buffer":0,"byteOffset":27456,"byteLength":432,"target":34962,"byteStride":12},{"buffer":0,"byteOffset":27888,"byteLength":432,"target":34962,"byteStride":12},{"buffer":0,"byteOffset":28320,"byteLength":288,"target":34962,"byteStride":8},{"buffer":0,"byteOffset":28608,"byteLength":432,"target":34962,"byteStride":12},{"buffer":0,"byteOffset":29040,"byteLength":432,"target":34962,"byteStride":12},{"buffer":0,"byteOffset":29472,"byteLength":288,"target":34962,"byteStride":8},{"buffer":0,"byteOffset":29760,"byteLength":432,"target":34962,"byteStride":12},{"buffer":0,"byteOffset":30192,"byteLength":432,"target":34962,"byteStride":12},{"buffer":0,"byteOffset":30624,"byteLength":288,"target":34962,"byteStride":8},{"buffer":0,"byteOffset":30912,"byteLength":432,"target":34962,"byteStride":12},{"buffer":0,"byteOffset":31344,"byteLength":432,"target":34962,"byteStride":12},{"buffer":0,"byteOffset":31776,"byteLength":288,"target":34962,"byteStride":8},{"buffer":0,"byteOffset":32064,"byteLength":432,"target":34962,"byteStride":12},{"buffer":0,"byteOffset":32496,"byteLength":432,"target":34962,"byteStride":12},{"buffer":0,"byteOffset":32928,"byteLength":288,"target":34962,"byteStride":8},{"buffer":0,"byteOffset":33216,"byteLength":432,"target":34962,"byteStride":12},{"buffer":0,"byteOffset":33648,"byteLength":432,"target":34962,"byteStride":12},{"buffer":0,"byteOffset":34080,"byteLength":288,"target":34962,"byteStride":8},{"buffer":0,"byteOffset":34368,"byteLength":720,"target":34962,"byteStride":12},{"buffer":0,"byteOffset":35088,"byteLength":720,"target":34962,"byteStride":12},{"buffer":0,"byteOffset":35808,"byteLength":480,"target":34962,"byteStride":8},{"buffer":0,"byteOffset":36288,"byteLength":720,"target":34962,"byteStride":12},{"buffer":0,"byteOffset":37008,"byteLength":720,"target":34962,"byteStride":12},{"buffer":0,"byteOffset":37728,"byteLength":480,"target":34962,"byteStride":8},{"buffer":0,"byteOffset":38208,"byteLength":720,"target":34962,"byteStride":12},{"buffer":0,"byteOffset":38928,"byteLength":720,"target":34962,"byteStride":12},{"buffer":0,"byteOffset":39648,"byteLength":480,"target":34962,"byteStride":8},{"buffer":0,"byteOffset":40128,"byteLength":540,"target":34962,"byteStride":12},{"buffer":0,"byteOffset":40668,"byteLength":540,"target":34962,"byteStride":12},{"buffer":0,"byteOffset":41208,"byteLength":360,"target":34962,"byteStride":8},{"buffer":0,"byteOffset":41568,"byteLength":540,"target":34962,"byteStride":12},{"buffer":0,"byteOffset":42108,"byteLength":540,"target":34962,"byteStride":12},{"buffer":0,"byteOffset":42648,"byteLength":360,"target":34962,"byteStride":8},{"buffer":0,"byteOffset":43008,"byteLength":720,"target":34962,"byteStride":12},{"buffer":0,"byteOffset":43728,"byteLength":720,"target":34962,"byteStride":12},{"buffer":0,"byteOffset":44448,"byteLength":480,"target":34962,"byteStride":8},{"buffer":0,"byteOffset":44928,"byteLength":720,"target":34962,"byteStride":12},{"buffer":0,"byteOffset":45648,"byteLength":720,"target":34962,"byteStride":12},{"buffer":0,"byteOffset":46368,"byteLength":480,"target":34962,"byteStride":8},{"buffer":0,"byteOffset":46848,"byteLength":720,"target":34962,"byteStride":12},{"buffer":0,"byteOffset":47568,"byteLength":720,"target":34962,"byteStride":12},{"buffer":0,"byteOffset":48288,"byteLength":480,"target":34962,"byteStride":8},{"buffer":0,"byteOffset":48768,"byteLength":540,"target":34962,"byteStride":12},{"buffer":0,"byteOffset":49308,"byteLength":540,"target":34962,"byteStride":12},{"buffer":0,"byteOffset":49848,"byteLength":360,"target":34962,"byteStride":8},{"buffer":0,"byteOffset":50208,"byteLength":540,"target":34962,"byteStride":12},{"buffer":0,"byteOffset":50748,"byteLength":540,"target":34962,"byteStride":12},{"buffer":0,"byteOffset":51288,"byteLength":360,"target":34962,"byteStride":8},{"buffer":0,"byteOffset":51648,"byteLength":720,"target":34962,"byteStride":12},{"buffer":0,"byteOffset":52368,"byteLength":720,"target":34962,"byteStride":12},{"buffer":0,"byteOffset":53088,"byteLength":480,"target":34962,"byteStride":8},{"buffer":0,"byteOffset":53568,"byteLength":720,"target":34962,"byteStride":12},{"buffer":0,"byteOffset":54288,"byteLength":720,"target":34962,"byteStride":12},{"buffer":0,"byteOffset":55008,"byteLength":480,"target":34962,"byteStride":8},{"buffer":0,"byteOffset":55488,"byteLength":720,"target":34962,"byteStride":12},{"buffer":0,"byteOffset":56208,"byteLength":720,"target":34962,"byteStride":12},{"buffer":0,"byteOffset":56928,"byteLength":480,"target":34962,"byteStride":8},{"buffer":0,"byteOffset":57408,"byteLength":540,"target":34962,"byteStride":12},{"buffer":0,"byteOffset":57948,"byteLength":540,"target":34962,"byteStride":12},{"buffer":0,"byteOffset":58488,"byteLength":360,"target":34962,"byteStride":8},{"buffer":0,"byteOffset":58848,"byteLength":540,"target":34962,"byteStride":12},{"buffer":0,"byteOffset":59388,"byteLength":540,"target":34962,"byteStride":12},{"buffer":0,"byteOffset":59928,"byteLength":360,"target":34962,"byteStride":8}],"buffers":[{"byteLength":60288,"uri":"data:application/octet-stream;base64,"}],"accessors":[{"bufferView":0,"componentType":5126,"count":60,"max":[0.6975336670875549,0.6975336670875549,0.6975336670875549],"min":[-0.6975336670875549,-0.6975336670875549,-0.6975336670875549],"type":"VEC3"},{"bufferView":1,"componentType":5126,"count":60,"max":[0.9341723322868347,0.9341723322868347,0.9341723322868347],"min":[-0.9341723322868347,-0.9341723322868347,-0.9341723322868347],"type":"VEC3"},{"bufferView":2,"componentType":5126,"count":60,"max":[1.0881041288375854,0.8237918019294739],"min":[0,0.17620819807052612],"type":"VEC2"},{"bufferView":3,"componentType":5126,"count":60,"max":[0.3572733402252197,0.3572733402252197,0.3572733402252197],"min":[-0.3572733402252197,-0.3572733402252197,-0.3572733402252197],"type":"VEC3"},{"bufferView":4,"componentType":5126,"count":60,"max":[0.9341723322868347,0.9341723322868347,0.9341723322868347],"min":[-0.9341723322868347,-0.9341723322868347,-0.9341723322868347],"type":"VEC3"},{"bufferView":5,"componentType":5126,"count":60,"max":[1.0881041288375854,0.8237918019294739],"min":[0,0.17620819807052612],"type":"VEC2"},{"bufferView":6,"componentType":5126,"count":60,"max":[0.39129936695098877,0.39129936695098877,0.39129936695098877],"min":[-0.39129936695098877,-0.39129936695098877,-0.39129936695098877],"type":"VEC3"},{"bufferView":7,"componentType":5126,"count":60,"max":[0.9341723918914795,0.9341723918914795,0.9341723918914795],"min":[-0.9341723918914795,-0.9341723918914795,-0.9341723918914795],"type":"VEC3"},{"bufferView":8,"componentType":5126,"count":60,"max":[1.0881041288375854,0.8237918019294739],"min":[0,0.17620819807052612],"type":"VEC2"},{"bufferView":9,"componentType":5126,"count":60,"max":[0.3402603268623352,0.3402603268623352,0.3402603268623352],"min":[-0.3402603268623352,-0.3402603268623352,-0.3402603268623352],"type":"VEC3"},{"bufferView":10,"componentType":5126,"count":60,"max":[0.9341723322868347,0.9341723322868347,0.9341723322868347],"min":[-0.9341723322868347,-0.9341723322868347,-0.9341723322868347],"type":"VEC3"},{"bufferView":11,"componentType":5126,"count":60,"max":[1.0881041288375854,0.8237918019294739],"min":[0,0.17620819807052612],"type":"VEC2"},{"bufferView":12,"componentType":5126,"count":60,"max":[0.1701301634311676,0.1701301634311676,0.1701301634311676],"min":[-0.1701301634311676,-0.1701301634311676,-0.1701301634311676],"type":"VEC3"},{"bufferView":13,"componentType":5126,"count":60,"max":[0.9341723322868347,0.9341723322868347,0.9341723322868347],"min":[-0.9341723322868347,-0.9341723322868347,-0.9341723322868347],"type":"VEC3"},{"bufferView":14,"componentType":5126,"count":60,"max":[1.0881041288375854,0.8237918019294739],"min":[0,0.17620819807052612],"type":"VEC2"},{"bufferView":15,"componentType":5126,"count":60,"max":[0.1701301634311676,0.1701301634311676,0.1701301634311676],"min":[-0.1701301634311676,-0.1701301634311676,-0.1701301634311676],"type":"VEC3"},{"bufferView":16,"componentType":5126,"count":60,"max":[0.9341723322868347,0.9341723322868347,0.9341723322868347],"min":[-0.9341723322868347,-0.9341723322868347,-0.9341723322868347],"type":"VEC3"},{"bufferView":17,"componentType":5126,"count":60,"max":[1.0881041288375854,0.8237918019294739],"min":[0,0.17620819807052612],"type":"VEC2"},{"bufferView":18,"componentType":5126,"count":36,"max":[0.09000000357627869,0.12999999523162842,0.09000000357627869],"min":[-0.09000000357627869,-0.12999999523162842,-0.09000000357627869],"type":"VEC3"},{"bufferView":19,"componentType":5126,"count":36,"max":[1,0.2377493977546692,0.6868315935134888],"min":[-0.6868315935134888,-1,-0.6868315935134888],"type":"VEC3"},{"bufferView":20,"componentType":5126,"count":36,"max":[1,1],"min":[0,0],"type":"VEC2"},{"bufferView":21,"componentType":5126,"count":36,"max":[0.09000000357627869,0.12999999523162842,0.09000000357627869],"min":[-0.09000000357627869,-0.12999999523162842,-0.09000000357627869],"type":"VEC3"},{"bufferView":22,"componentType":5126,"count":36,"max":[1,0.2377493977546692,0.6868315935134888],"min":[-0.6868315935134888,-1,-0.6868315935134888],"type":"VEC3"},{"bufferView":23,"componentType":5126,"count":36,"max":[1,1],"min":[0,0],"type":"VEC2"},{"bufferView":24,"componentType":5126,"count":45,"max":[0.04755282402038574,0.25,0.05000000074505806],"min":[-0.04755282402038574,-0.25,-0.04045084863901138],"type":"VEC3"},{"bufferView":25,"componentType":5126,"count":45,"max":[1,0.08063823729753494,0.8063823580741882],"min":[-0.9479593634605408,-1,-0.9967434406280518],"type":"VEC3"},{"bufferView":26,"componentType":5126,"count":45,"max":[1,1],"min":[0,0],"type":"VEC2"},{"bufferView":27,"componentType":5126,"count":45,"max":[0.026629582047462463,0.10000000149011612,0.02800000086426735],"min":[-0.026629582047462463,-0.10000000149011612,-0.02265247516334057],"type":"VEC3"},{"bufferView":28,"componentType":5126,"count":45,"max":[1,0.11254280805587769,0.8038771748542786],"min":[-0.9450143575668335,-1,-0.9936468601226807],"type":"VEC3"},{"bufferView":29,"componentType":5126,"count":45,"max":[1,1],"min":[0,0],"type":"VEC2"},{"bufferView":30,"componentType":5126,"count":60,"max":[0.06379880756139755,0.06379880756139755,0.06379880756139755],"min":[-0.06379880756139755,-0.06379880756139755,-0.06379880756139755],"type":"VEC3"},{"bufferView":31,"componentType":5126,"count":60,"max":[0.9341723918914795,0.9341723918914795,0.9341723918914795],"min":[-0.9341723918914795,-0.9341723918914795,-0.9341723918914795],"type":"VEC3"},{"bufferView":32,"componentType":5126,"count":60,"max":[1.0881041288375854,0.8237918019294739],"min":[0,0.17620819807052612],"type":"VEC2"},{"bufferView":33,"componentType":5126,"count":60,"max":[0.05784425511956215,0.05784425511956215,0.05784425511956215],"min":[-0.05784425511956215,-0.05784425511956215,-0.05784425511956215],"type":"VEC3"},{"bufferView":34,"componentType":5126,"count":60,"max":[0.9341723322868347,0.9341723322868347,0.9341723322868347],"min":[-0.9341723322868347,-0.9341723322868347,-0.9341723322868347],"type":"VEC3"},{"bufferView":35,"componentType":5126,"count":60,"max":[1.0881041288375854,0.8237918019294739],"min":[0,0.17620819807052612],"type":"VEC2"},{"bufferView":36,"componentType":5126,"count":60,"max":[0.028922127559781075,0.028922127559781075,0.028922127559781075],"min":[-0.028922127559781075,-0.028922127559781075,-0.028922127559781075],"type":"VEC3"},{"bufferView":37,"componentType":5126,"count":60,"max":[0.9341723322868347,0.9341723322868347,0.9341723322868347],"min":[-0.9341723322868347,-0.9341723322868347,-0.9341723322868347],"type":"VEC3"},{"bufferView":38,"componentType":5126,"count":60,"max":[1.0881041288375854,0.8237918019294739],"min":[0,0.17620819807052612],"type":"VEC2"},{"bufferView":39,"componentType":5126,"count":60,"max":[0.05784425511956215,0.05784425511956215,0.05784425511956215],"min":[-0.05784425511956215,-0.05784425511956215,-0.05784425511956215],"type":"VEC3"},{"bufferView":40,"componentType":5126,"count":60,"max":[0.9341723322868347,0.9341723322868347,0.9341723322868347],"min":[-0.9341723322868347,-0.9341723322868347,-0.9341723322868347],"type":"VEC3"},{"bufferView":41,"componentType":5126,"count":60,"max":[1.0881041288375854,0.8237918019294739],"min":[0,0.17620819807052612],"type":"VEC2"},{"bufferView":42,"componentType":5126,"count":60,"max":[0.028922127559781075,0.028922127559781075,0.028922127559781075],"min":[-0.028922127559781075,-0.028922127559781075,-0.028922127559781075],"type":"VEC3"},{"bufferView":43,"componentType":5126,"count":60,"max":[0.9341723322868347,0.9341723322868347,0.9341723322868347],"min":[-0.9341723322868347,-0.9341723322868347,-0.9341723322868347],"type":"VEC3"},{"bufferView":44,"componentType":5126,"count":60,"max":[1.0881041288375854,0.8237918019294739],"min":[0,0.17620819807052612],"type":"VEC2"},{"bufferView":45,"componentType":5126,"count":36,"max":[0.14000000059604645,0.17000000178813934,0.14000000059604645],"min":[-0.14000000059604645,-0.17000000178813934,-0.14000000059604645],"type":"VEC3"},{"bufferView":46,"componentType":5126,"count":36,"max":[1,0.27955305576324463,0.6789146065711975],"min":[-0.6789146065711975,-1,-0.6789146065711975],"type":"VEC3"},{"bufferView":47,"componentType":5126,"count":36,"max":[1,1],"min":[0,0],"type":"VEC2"},{"bufferView":48,"componentType":5126,"count":36,"max":[0.12999999523162842,0.15000000596046448,0.12999999523162842],"min":[-0.12999999523162842,-0.15000000596046448,-0.12999999523162842],"type":"VEC3"},{"bufferView":49,"componentType":5126,"count":36,"max":[1,0.29296818375587463,0.6760804653167725],"min":[-0.6760804653167725,-1,-0.6760804653167725],"type":"VEC3"},{"bufferView":50,"componentType":5126,"count":36,"max":[1,1],"min":[0,0],"type":"VEC2"},{"bufferView":51,"componentType":5126,"count":36,"max":[0.11999999731779099,0.12999999523162842,0.11999999731779099],"min":[-0.11999999731779099,-0.12999999523162842,-0.11999999731779099],"type":"VEC3"},{"bufferView":52,"componentType":5126,"count":36,"max":[1,0.3102526366710663,0.6722139716148376],"min":[-0.6722139716148376,-1,-0.6722139716148376],"type":"VEC3"},{"bufferView":53,"componentType":5126,"count":36,"max":[1,1],"min":[0,0],"type":"VEC2"},{"bufferView":54,"componentType":5126,"count":36,"max":[0.10000000149011612,0.10999999940395355,0.10000000149011612],"min":[-0.10000000149011612,-0.10999999940395355,-0.10000000149011612],"type":"VEC3"},{"bufferView":55,"componentType":5126,"count":36,"max":[1,0.30599504709243774,0.6731890439987183],"min":[-0.6731890439987183,-1,-0.6731890439987183],"type":"VEC3"},{"bufferView":56,"componentType":5126,"count":36,"max":[1,1],"min":[0,0],"type":"VEC2"},{"bufferView":57,"componentType":5126,"count":36,"max":[0.1599999964237213,0.17599999904632568,0.1599999964237213],"min":[-0.1599999964237213,-0.17599999904632568,-0.1599999964237213],"type":"VEC3"},{"bufferView":58,"componentType":5126,"count":36,"max":[1,0.30599504709243774,0.6731890439987183],"min":[-0.6731890439987183,-1,-0.6731890439987183],"type":"VEC3"},{"bufferView":59,"componentType":5126,"count":36,"max":[1,1],"min":[0,0],"type":"VEC2"},{"bufferView":60,"componentType":5126,"count":36,"max":[0.12999999523162842,0.14300000667572021,0.12999999523162842],"min":[-0.12999999523162842,-0.14300000667572021,-0.12999999523162842],"type":"VEC3"},{"bufferView":61,"componentType":5126,"count":36,"max":[1,0.30599501729011536,0.6731890439987183],"min":[-0.6731890439987183,-1,-0.6731890439987183],"type":"VEC3"},{"bufferView":62,"componentType":5126,"count":36,"max":[1,1],"min":[0,0],"type":"VEC2"},{"bufferView":63,"componentType":5126,"count":36,"max":[0.10000000149011612,0.10999999940395355,0.10000000149011612],"min":[-0.10000000149011612,-0.10999999940395355,-0.10000000149011612],"type":"VEC3"},{"bufferView":64,"componentType":5126,"count":36,"max":[1,0.30599504709243774,0.6731890439987183],"min":[-0.6731890439987183,-1,-0.6731890439987183],"type":"VEC3"},{"bufferView":65,"componentType":5126,"count":36,"max":[1,1],"min":[0,0],"type":"VEC2"},{"bufferView":66,"componentType":5126,"count":60,"max":[0.18231754004955292,0.397599995136261,0.19169999659061432],"min":[-0.18231754004955292,-0.397599995136261,-0.15508855879306793],"type":"VEC3"},{"bufferView":67,"componentType":5126,"count":60,"max":[0.9498430490493774,1,0.8079848289489746],"min":[-0.9498430490493774,-1,-0.998724102973938],"type":"VEC3"},{"bufferView":68,"componentType":5126,"count":60,"max":[1,1],"min":[0,0],"type":"VEC2"},{"bufferView":69,"componentType":5126,"count":60,"max":[0.10267355293035507,0.10267355293035507,0.10267355293035507],"min":[-0.10267355293035507,-0.10267355293035507,-0.10267355293035507],"type":"VEC3"},{"bufferView":70,"componentType":5126,"count":60,"max":[0.9341723322868347,0.9341723322868347,0.9341723322868347],"min":[-0.9341723322868347,-0.9341723322868347,-0.9341723322868347],"type":"VEC3"},{"bufferView":71,"componentType":5126,"count":60,"max":[1.0881041288375854,0.8237918019294739],"min":[0,0.17620819807052612],"type":"VEC2"},{"bufferView":72,"componentType":5126,"count":60,"max":[0.14855502545833588,0.3124000132083893,0.15620000660419464],"min":[-0.14855502545833588,-0.3124000132083893,-0.126368448138237],"type":"VEC3"},{"bufferView":73,"componentType":5126,"count":60,"max":[0.9496129751205444,1,0.8077890276908875],"min":[-0.9496129751205444,-1,-0.9984821081161499],"type":"VEC3"},{"bufferView":74,"componentType":5126,"count":60,"max":[1,1],"min":[0,0],"type":"VEC2"},{"bufferView":75,"componentType":5126,"count":45,"max":[0.12363734841346741,0.17000000178813934,0.12999999523162842],"min":[-0.12363734841346741,-0.17000000178813934,-0.10517220944166183],"type":"VEC3"},{"bufferView":76,"componentType":5126,"count":45,"max":[1,0.2955147624015808,0.7728848457336426],"min":[-0.9085806012153625,-1,-0.955338180065155],"type":"VEC3"},{"bufferView":77,"componentType":5126,"count":45,"max":[1,1],"min":[0,0],"type":"VEC2"},{"bufferView":78,"componentType":5126,"count":45,"max":[0.07132923603057861,0.10000000149011612,0.07500000298023224],"min":[-0.07132923603057861,-0.10000000149011612,-0.060676272958517075],"type":"VEC3"},{"bufferView":79,"componentType":5126,"count":45,"max":[1,0.29031509160995483,0.7741734981536865],"min":[-0.9100955724716187,-1,-0.9569311141967773],"type":"VEC3"},{"bufferView":80,"componentType":5126,"count":45,"max":[1,1],"min":[0,0],"type":"VEC2"},{"bufferView":81,"componentType":5126,"count":60,"max":[0.25036561489105225,0.5460000038146973,0.2632499933242798],"min":[-0.25036561489105225,-0.5460000038146973,-0.2129737287759781],"type":"VEC3"},{"bufferView":82,"componentType":5126,"count":60,"max":[0.9498431086540222,1,0.8079847693443298],"min":[-0.9498431086540222,-1,-0.998724102973938],"type":"VEC3"},{"bufferView":83,"componentType":5126,"count":60,"max":[1,1],"min":[0,0],"type":"VEC2"},{"bufferView":84,"componentType":5126,"count":60,"max":[0.14099536836147308,0.14099536836147308,0.14099536836147308],"min":[-0.14099536836147308,-0.14099536836147308,-0.14099536836147308],"type":"VEC3"},{"bufferView":85,"componentType":5126,"count":60,"max":[0.9341723918914795,0.9341723918914795,0.9341723918914795],"min":[-0.9341723918914795,-0.9341723918914795,-0.9341723918914795],"type":"VEC3"},{"bufferView":86,"componentType":5126,"count":60,"max":[1.0881041288375854,0.8237918019294739],"min":[0,0.17620819807052612],"type":"VEC2"},{"bufferView":87,"componentType":5126,"count":60,"max":[0.20400162041187286,0.42899999022483826,0.21449999511241913],"min":[-0.20400162041187286,-0.42899999022483826,-0.17353413999080658],"type":"VEC3"},{"bufferView":88,"componentType":5126,"count":60,"max":[0.9496129155158997,1,0.8077890276908875],"min":[-0.9496129155158997,-1,-0.9984821081161499],"type":"VEC3"},{"bufferView":89,"componentType":5126,"count":60,"max":[1,1],"min":[0,0],"type":"VEC2"},{"bufferView":90,"componentType":5126,"count":45,"max":[0.12363734841346741,0.17000000178813934,0.12999999523162842],"min":[-0.12363734841346741,-0.17000000178813934,-0.10517220944166183],"type":"VEC3"},{"bufferView":91,"componentType":5126,"count":45,"max":[1,0.2955147624015808,0.7728848457336426],"min":[-0.9085806012153625,-1,-0.955338180065155],"type":"VEC3"},{"bufferView":92,"componentType":5126,"count":45,"max":[1,1],"min":[0,0],"type":"VEC2"},{"bufferView":93,"componentType":5126,"count":45,"max":[0.07132923603057861,0.10000000149011612,0.07500000298023224],"min":[-0.07132923603057861,-0.10000000149011612,-0.060676272958517075],"type":"VEC3"},{"bufferView":94,"componentType":5126,"count":45,"max":[1,0.29031509160995483,0.7741734981536865],"min":[-0.9100955724716187,-1,-0.9569311141967773],"type":"VEC3"},{"bufferView":95,"componentType":5126,"count":45,"max":[1,1],"min":[0,0],"type":"VEC2"},{"bufferView":96,"componentType":5126,"count":60,"max":[0.1566390097141266,0.3416000008583069,0.1647000014781952],"min":[-0.1566390097141266,-0.3416000008583069,-0.1332450956106186],"type":"VEC3"},{"bufferView":97,"componentType":5126,"count":60,"max":[0.9498431086540222,1,0.8079847693443298],"min":[-0.9498431086540222,-1,-0.998724102973938],"type":"VEC3"},{"bufferView":98,"componentType":5126,"count":60,"max":[1,1],"min":[0,0],"type":"VEC2"},{"bufferView":99,"componentType":5126,"count":60,"max":[0.08821249008178711,0.08821249008178711,0.08821249008178711],"min":[-0.08821249008178711,-0.08821249008178711,-0.08821249008178711],"type":"VEC3"},{"bufferView":100,"componentType":5126,"count":60,"max":[0.9341723322868347,0.9341723322868347,0.9341723322868347],"min":[-0.9341723322868347,-0.9341723322868347,-0.9341723322868347],"type":"VEC3"},{"bufferView":101,"componentType":5126,"count":60,"max":[1.0881041288375854,0.8237918019294739],"min":[0,0.17620819807052612],"type":"VEC2"},{"bufferView":102,"componentType":5126,"count":60,"max":[0.1276317834854126,0.26840001344680786,0.13420000672340393],"min":[-0.1276317834854126,-0.26840001344680786,-0.10857008397579193],"type":"VEC3"},{"bufferView":103,"componentType":5126,"count":60,"max":[0.9496129155158997,1,0.8077890276908875],"min":[-0.9496129155158997,-1,-0.9984821081161499],"type":"VEC3"},{"bufferView":104,"componentType":5126,"count":60,"max":[1,1],"min":[0,0],"type":"VEC2"},{"bufferView":105,"componentType":5126,"count":45,"max":[0.12363734841346741,0.17000000178813934,0.12999999523162842],"min":[-0.12363734841346741,-0.17000000178813934,-0.10517220944166183],"type":"VEC3"},{"bufferView":106,"componentType":5126,"count":45,"max":[1,0.2955147624015808,0.7728848457336426],"min":[-0.9085806012153625,-1,-0.955338180065155],"type":"VEC3"},{"bufferView":107,"componentType":5126,"count":45,"max":[1,1],"min":[0,0],"type":"VEC2"},{"bufferView":108,"componentType":5126,"count":45,"max":[0.07132923603057861,0.10000000149011612,0.07500000298023224],"min":[-0.07132923603057861,-0.10000000149011612,-0.060676272958517075],"type":"VEC3"},{"bufferView":109,"componentType":5126,"count":45,"max":[1,0.29031509160995483,0.7741734981536865],"min":[-0.9100955724716187,-1,-0.9569311141967773],"type":"VEC3"},{"bufferView":110,"componentType":5126,"count":45,"max":[1,1],"min":[0,0],"type":"VEC2"}],"materials":[{"pbrMetallicRoughness":{"baseColorFactor":[0.3568627450980392,0.29411764705882354,0.6196078431372549,1],"metallicFactor":0.08,"roughnessFactor":0.65}},{"pbrMetallicRoughness":{"baseColorFactor":[0.5333333333333333,0.4745098039215686,0.788235294117647,1],"metallicFactor":0.08,"roughnessFactor":0.65}},{"pbrMetallicRoughness":{"baseColorFactor":[0.24705882352941178,0.2,0.4470588235294118,1],"metallicFactor":0.08,"roughnessFactor":0.65}},{"pbrMetallicRoughness":{"baseColorFactor":[0.4627450980392157,0.4117647058823529,0.7529411764705882,1],"metallicFactor":0.08,"roughnessFactor":0.65}},{"pbrMetallicRoughness":{"baseColorFactor":[0.611764705882353,0.5607843137254902,0.8784313725490196,1],"metallicFactor":0.08,"roughnessFactor":0.65}},{"pbrMetallicRoughness":{"baseColorFactor":[0.27058823529411763,0.2196078431372549,0.45098039215686275,1],"metallicFactor":0.08,"roughnessFactor":0.65}},{"pbrMetallicRoughness":{"baseColorFactor":[0.803921568627451,0.9333333333333333,1,1],"metallicFactor":0.1,"roughnessFactor":0.25},"emissiveFactor":[0.21764705882352942,0.44509803921568625,0.3843137254901961]},{"pbrMetallicRoughness":{"baseColorFactor":[0.9176470588235294,0.9882352941176471,1,1],"metallicFactor":0.08,"roughnessFactor":0.2},"emissiveFactor":[0.7341176470588235,0.7905882352941177,0.8]},{"pbrMetallicRoughness":{"baseColorFactor":[0.43529411764705883,0.8901960784313725,0.7686274509803922,0.55],"metallicFactor":0,"roughnessFactor":0.9},"alphaMode":"BLEND","extensions":{"KHR_materials_unlit":{}}},{"pbrMetallicRoughness":{"baseColorFactor":[0.9529411764705882,0.9333333333333333,0.984313725490196,1],"metallicFactor":0.08,"roughnessFactor":0.5}},{"pbrMetallicRoughness":{"baseColorFactor":[0.1411764705882353,0.10980392156862745,0.25098039215686274,1],"metallicFactor":0.08,"roughnessFactor":0.6}},{"pbrMetallicRoughness":{"baseColorFactor":[0.6588235294117647,0.6078431372549019,0.8784313725490196,1],"metallicFactor":0.08,"roughnessFactor":0.65}},{"pbrMetallicRoughness":{"baseColorFactor":[0.2901960784313726,0.23921568627450981,0.5019607843137255,1],"metallicFactor":0.08,"roughnessFactor":0.65}},{"pbrMetallicRoughness":{"baseColorFactor":[0.2901960784313726,0.23921568627450981,0.5019607843137255,1],"metallicFactor":0.08,"roughnessFactor":0.65}},{"pbrMetallicRoughness":{"baseColorFactor":[1,0.6039215686274509,0.33725490196078434,1],"metallicFactor":0.08,"roughnessFactor":0.4},"emissiveFactor":[0.5,0.30196078431372547,0.16862745098039217]},{"pbrMetallicRoughness":{"baseColorFactor":[1,0.8196078431372549,0.4,1],"metallicFactor":0.08,"roughnessFactor":0.4},"emissiveFactor":[0.6,0.4917647058823529,0.24]},{"pbrMetallicRoughness":{"baseColorFactor":[0.25882352941176473,0.20784313725490197,0.43529411764705883,1],"metallicFactor":0.08,"roughnessFactor":0.65}}],"meshes":[{"primitives":[{"mode":4,"attributes":{"POSITION":0,"NORMAL":1,"TEXCOORD_0":2},"material":0}]},{"primitives":[{"mode":4,"attributes":{"POSITION":3,"NORMAL":4,"TEXCOORD_0":5},"material":1}]},{"primitives":[{"mode":4,"attributes":{"POSITION":6,"NORMAL":7,"TEXCOORD_0":8},"material":2}]},{"primitives":[{"mode":4,"attributes":{"POSITION":9,"NORMAL":10,"TEXCOORD_0":11},"material":3}]},{"primitives":[{"mode":4,"attributes":{"POSITION":12,"NORMAL":13,"TEXCOORD_0":14},"material":4}]},{"primitives":[{"mode":4,"attributes":{"POSITION":15,"NORMAL":16,"TEXCOORD_0":17},"material":5}]},{"primitives":[{"mode":4,"attributes":{"POSITION":18,"NORMAL":19,"TEXCOORD_0":20},"material":4}]},{"primitives":[{"mode":4,"attributes":{"POSITION":21,"NORMAL":22,"TEXCOORD_0":23},"material":3}]},{"primitives":[{"mode":4,"attributes":{"POSITION":24,"NORMAL":25,"TEXCOORD_0":26},"material":6}]},{"primitives":[{"mode":4,"attributes":{"POSITION":27,"NORMAL":28,"TEXCOORD_0":29},"material":7}]},{"primitives":[{"mode":4,"attributes":{"POSITION":30,"NORMAL":31,"TEXCOORD_0":32},"material":8}]},{"primitives":[{"mode":4,"attributes":{"POSITION":33,"NORMAL":34,"TEXCOORD_0":35},"material":9}]},{"primitives":[{"mode":4,"attributes":{"POSITION":36,"NORMAL":37,"TEXCOORD_0":38},"material":10}]},{"primitives":[{"mode":4,"attributes":{"POSITION":39,"NORMAL":40,"TEXCOORD_0":41},"material":9}]},{"primitives":[{"mode":4,"attributes":{"POSITION":42,"NORMAL":43,"TEXCOORD_0":44},"material":10}]},{"primitives":[{"mode":4,"attributes":{"POSITION":45,"NORMAL":46,"TEXCOORD_0":47},"material":11}]},{"primitives":[{"mode":4,"attributes":{"POSITION":48,"NORMAL":49,"TEXCOORD_0":50},"material":12}]},{"primitives":[{"mode":4,"attributes":{"POSITION":51,"NORMAL":52,"TEXCOORD_0":53},"material":11}]},{"primitives":[{"mode":4,"attributes":{"POSITION":54,"NORMAL":55,"TEXCOORD_0":56},"material":12}]},{"primitives":[{"mode":4,"attributes":{"POSITION":57,"NORMAL":58,"TEXCOORD_0":59},"material":1}]},{"primitives":[{"mode":4,"attributes":{"POSITION":60,"NORMAL":61,"TEXCOORD_0":62},"material":13}]},{"primitives":[{"mode":4,"attributes":{"POSITION":63,"NORMAL":64,"TEXCOORD_0":65},"material":2}]},{"primitives":[{"mode":4,"attributes":{"POSITION":66,"NORMAL":67,"TEXCOORD_0":68},"material":13}]},{"primitives":[{"mode":4,"attributes":{"POSITION":69,"NORMAL":70,"TEXCOORD_0":71},"material":13}]},{"primitives":[{"mode":4,"attributes":{"POSITION":72,"NORMAL":73,"TEXCOORD_0":74},"material":13}]},{"primitives":[{"mode":4,"attributes":{"POSITION":75,"NORMAL":76,"TEXCOORD_0":77},"material":14}]},{"primitives":[{"mode":4,"attributes":{"POSITION":78,"NORMAL":79,"TEXCOORD_0":80},"material":15}]},{"primitives":[{"mode":4,"attributes":{"POSITION":81,"NORMAL":82,"TEXCOORD_0":83},"material":16}]},{"primitives":[{"mode":4,"attributes":{"POSITION":84,"NORMAL":85,"TEXCOORD_0":86},"material":16}]},{"primitives":[{"mode":4,"attributes":{"POSITION":87,"NORMAL":88,"TEXCOORD_0":89},"material":16}]},{"primitives":[{"mode":4,"attributes":{"POSITION":90,"NORMAL":91,"TEXCOORD_0":92},"material":14}]},{"primitives":[{"mode":4,"attributes":{"POSITION":93,"NORMAL":94,"TEXCOORD_0":95},"material":15}]},{"primitives":[{"mode":4,"attributes":{"POSITION":96,"NORMAL":97,"TEXCOORD_0":98},"material":13}]},{"primitives":[{"mode":4,"attributes":{"POSITION":99,"NORMAL":100,"TEXCOORD_0":101},"material":13}]},{"primitives":[{"mode":4,"attributes":{"POSITION":102,"NORMAL":103,"TEXCOORD_0":104},"material":13}]},{"primitives":[{"mode":4,"attributes":{"POSITION":105,"NORMAL":106,"TEXCOORD_0":107},"material":14}]},{"primitives":[{"mode":4,"attributes":{"POSITION":108,"NORMAL":109,"TEXCOORD_0":110},"material":15}]}],"extensionsUsed":["KHR_materials_unlit"]}